<?xml version="1.0" ?><!DOCTYPE svg  PUBLIC '-//W3C//DTD SVG 1.1//EN'  'http://www.w3.org/Graphics/SVG/1.1/DTD/svg11.dtd'><svg enable-background="new 0 0 1024 1024" height="1024px" id="Layer_1" version="1.1" viewBox="0 0 1024 1024" width="1024px" xml:space="preserve" xmlns="http://www.w3.org/2000/svg" xmlns:xlink="http://www.w3.org/1999/xlink"><g><path d="M0,308.078c0-15.338,0-30.674,0-46.012c0.633-3.189,1.54-6.347,1.857-9.567C12.901,140.817,93.642,43.048,201.511,11.811    C219.926,6.478,239.129,3.868,257.968,0c15.332,0,30.664,0,45.995,0c0.889,0.426,1.75,1.151,2.672,1.239    c44.576,4.237,85.61,18.65,123.513,42.42c2.704,1.696,6.979,1.909,10.318,1.419c88.231-12.958,173.637-2.409,255.049,33.694    c192.865,85.529,303.898,280.505,280.969,490.611c-0.619,5.686,1.102,12.629,4.092,17.551    c35.775,58.879,49.84,122.512,40.725,190.658c-26.969,201.609-243.719,308.738-419.707,207.986    c-4.178-2.391-10.189-3.471-14.938-2.686c-52.453,8.672-105.043,9.551-157.112-0.809    C251.206,946.6,130.374,842.256,66.463,672.711c-27.021-71.688-32.56-146.529-22.997-222.556    c0.789-6.274-1.059-13.886-4.188-19.472c-13.603-24.272-24.466-49.586-30.835-76.639C4.876,338.9,2.766,323.412,0,308.078z     M518.719,882.252c8.818-0.42,23.492-0.721,38.098-1.881c76.895-6.102,141.67-37.273,192.697-95.363    c26.57-30.246,43.768-65.336,46.234-106.17c3.092-51.197-17.559-93.482-51.832-129.75c-31.508-33.344-71.268-54.042-114.49-66.556    c-54.596-15.807-110.09-28.525-165.261-42.312c-21.369-5.341-42.682-10.581-61.069-23.549    c-28.265-19.932-34.152-49.724-14.784-78.424c5.149-7.629,11.457-14.998,18.684-20.616c46.045-35.795,96.51-40.224,149.692-18.759    c31.062,12.539,56.01,34.351,81.078,55.899c14.123,12.139,28.604,23.971,43.758,34.769c14.207,10.12,29.996,10.247,45.402,2.068    c21.914-11.625,34.543-30.041,37.018-54.668c3.371-33.565-12.727-59.132-35.777-81.028    c-24.332-23.115-51.818-42.024-82.623-55.389c-81.322-35.281-165.823-39.813-250.359-17.243    c-76.485,20.42-127.585,70.88-149.961,148.026c-23.289,80.294-1.582,142.196,66.414,190.48    c40.777,28.959,86.533,46.863,134.833,58.242c32.365,7.621,65.378,12.547,97.645,20.523c29.51,7.297,58.051,17.99,80.775,39.521    c19.506,18.482,22.666,39.898,9.566,63.42c-14.605,26.225-36.479,43.859-65.193,52.594c-34.715,10.557-69.227,6.6-103.481-2.543    c-34.858-9.305-65.657-24.9-88.471-54.416c-9.499-12.291-21.074-23.279-33.036-33.264c-9.049-7.555-19.574-14.236-30.542-18.439    c-42.959-16.465-84.836,12.379-86.038,58.307c-0.759,29.043,10.996,53.373,29.595,74.318    c30.482,34.326,66.595,61.215,109.539,78.365C413.765,877.158,462.991,881.602,518.719,882.252z"/></g></svg>