<?xml version="1.0" ?><svg enable-background="new 0 0 195.4227 196.7792" id="skype" version="1.1" viewBox="0 0 195.4227 196.7792" xml:space="preserve" xmlns="http://www.w3.org/2000/svg" xmlns:xlink="http://www.w3.org/1999/xlink"><g><path d="M122.349,84.424l-0.3983-0.092c-22.9573-4.1016-36.4181-10.2576-36.4513-10.2576c0,0,0,0.0016,0.002,0.0016   c-2.2344-1.2676-4.9396-3.2576-5.1467-5.5348c-0.1873-2.0704,1.6991-4.3148,2.672-5.2364   c22.3299-11.3732,32.2247,2.5544,32.6407,3.162c6.2676,9.2656,12.6756,14.338,19.0448,15.078   c5.5352,0.6408,8.8828-2.2712,9.174-2.5408c4.5996-4.0352,6.9372-8.758,6.9452-14.0332c0.0176-10.2268-9.1212-18.42-9.4296-18.6916   c-26.754-24.9376-68.3751-10.6308-70.0724-10.0252C37.6202,47.578,44.6362,79.2248,44.7102,79.5428l0.1328,0.4456   c9.9784,27.6112,52.0176,31.1972,53.7988,31.336c20.088,1.5876,20.9376,11.1932,20.9708,11.7324   c0.7228,10.1112-17.0352,13.1092-19.5352,13.4804c-17.5332-0.9748-21.6544-7.8068-21.66-7.8068v0.002l-0.4084-0.668   c-9.168-12.1288-12.7383-16.334-20.5663-16.5352c-6.5605-0.2168-10.3925,2.4572-12.4669,4.6956   c-5.246,5.652-4.5684,13.998-4.4744,14.9316l0.0896,0.5252c7.7228,32.3088,50.1936,31.9648,51.7032,31.9396   c2.4784,0.1504,4.8612,0.2224,7.1525,0.2224c53.1795-0.002,56.824-38.6444,56.8495-38.9784   C158.587,101.2264,135.093,88.076,122.349,84.424z M148.3274,124.168c-0.1092,1.416-3.326,34.6388-55.8556,31.4608   c-0.3848-0.0116-37.5684,0.262-44.0232-25.494c-0.0468-1.0548-0.1076-5.7756,2.3904-8.4688   c1.4064-1.5156,3.51-2.2384,6.3948-2.1408c3.6364,0.094,5.16,1.1624,14.2224,13.1368c1.3164,2.262,7.6604,10.832,28.586,11.8828   l0.328,0.0176l0.3245-0.0372c10.4903-1.1912,27.9607-7.1716,26.9083-21.818c-0.012-0.6992-0.592-17.166-28.336-19.3596   c-0.3848-0.0292-38.3948-3.248-46.8144-25.8456c-0.5452-2.592-4.432-24.9784,21.4824-33.6856   c0.3864-0.1348,38.7732-13.3516,62.082,8.3788c1.904,1.7012,6.8396,7.3144,6.8144,12.7872   c-0.0116,2.9084-1.3948,5.5272-4.2952,8.0744c-0.0095,0.0056-1.1132,0.742-2.9,0.5428c-2.2248-0.258-6.9144-2.1112-13.3224-11.586   c-0.1388-0.2068-14.2208-20.7556-43.4084-5.586l-0.6816,0.4492c-0.658,0.5372-6.42,5.4456-5.8436,12.3128   c0.3905,4.6268,3.4764,8.6112,9.4492,11.988c0.578,0.2696,14.3848,6.6584,38.4824,10.9884   C122.7726,92.9336,150.4662,102.0996,148.3274,124.168z"/><path d="M191.2006,115.5136c1.4024-7.748,7.2752-49.9256-24.1172-80.7772C164.5698,31.7968,136.005,0.004,83.2902,7.1856   c-7.0195-3.6484-40.5-18.6464-68.7772,9.9648c-0.2616,0.2752-25.8028,27.5468-8.51,62.6756   c-1.248,5.594-4.4372,25.0472,4.68,48.9104c0.492,1.7676,12.572,43.4452,58.2576,57.0644   c0.8284,0.3164,20.2892,7.6152,45.4628,5.3612c3.3516,1.4924,13.7852,5.6172,26.5473,5.6172   c12.1227,0,26.3455-3.7208,38.6031-16.9588C181.265,178.08,204.8254,153.1836,191.2006,115.5136z M173.8274,174.2344   l-0.1016,0.1056c-23.6932,25.6464-55.4568,9.8672-56.7948,9.1796l-1.0548-0.5392l-1.17,0.1172   c-23.7344,2.3632-42.7264-4.7012-43.1932-4.8672c-41.6288-12.42-53.0136-51.254-53.2383-51.992   c-9.7285-25.508-4.244-45.5976-4.1893-45.7892l0.4432-1.5372l-0.7404-1.418c-15.9512-30.6072,5.584-53.8416,6.4592-54.7636   C47.3078-4.662,79.1322,13.9512,80.4698,14.752l1.2308,0.748l1.4256-0.2108c50.3245-7.428,76.8476,23.416,77.9472,24.7284   l0.2796,0.3028c30.8984,30.2284,21.8904,74.244,21.7968,74.6856l-0.248,1.156l0.416,1.1016   C196.1322,151.1504,174.7454,173.3068,173.8274,174.2344z"/></g></svg>