<svg xmlns="http://www.w3.org/2000/svg" viewBox="0 0 588 112.25"><defs><style>.cls-1{fill:#010101;}.cls-2{fill:#fdfdfd;}.cls-3{fill:#fafafa;}.cls-4{fill:#f7f7f7;}.cls-5{fill:#02bc3b;}.cls-6{fill:#f8f8f8;}.cls-7{fill:#f9f9f9;}.cls-8{fill:#1cf27a;}.cls-9{fill:#19ec73;}.cls-10{fill:#06c545;}.cls-11{fill:#15e46a;}.cls-12{fill:#13e367;}.cls-13{fill:#08cc4d;}.cls-14{fill:#0dd157;}.cls-15{fill:#21db68;}.cls-16{fill:#09ce4f;}.cls-17{fill:#0fda5d;}.cls-18{fill:#18ca67;}.cls-19{fill:#effbf4;}.cls-20{fill:#45d877;}.cls-21{fill:#020202;}.cls-22{fill:#29ed7c;}.cls-23{fill:#17e268;}.cls-24{fill:#19da62;}.cls-25{fill:#0cd456;}.cls-26{fill:#2ae676;}.cls-27{fill:#f3fcf6;}.cls-28{fill:#0bd153;}.cls-29{fill:#07c848;}</style></defs><g id="Layer_2" data-name="Layer 2"><g id="Layer_1-2" data-name="Layer 1"><path class="cls-1" d="M0,98.5V13.75A34.55,34.55,0,0,1,15.58,0H568.41a60.44,60.44,0,0,1,6.11,3.55c8.31,6.17,13.14,14.11,13.07,24.8q-.2,32.17,0,64.34c0,7.57-3.37,13.07-9.1,17.53a7.5,7.5,0,0,1-4.89,1.63q-232.56-.06-465.12,0-45.73,0-91.47,0a10.1,10.1,0,0,1-4.39-1.12C7.19,107.9,3.19,103.61,0,98.5ZM96,58.12V33.71c0-2.21,0-4.42,0-6.63l-2-5.54a.18.18,0,0,0-.14-.24c-1.74-4-7-7.21-11.57-7-4.3,0-8.6-.06-12.9-.06q-21.8,0-43.59.07a12.11,12.11,0,0,0-10.57,6.14.32.32,0,0,0-.19.31,8.34,8.34,0,0,0-2.51,6.77V83c-1,6.09,5.63,14.56,13.59,14.59,18.75.08,37.5,0,56.25,0C89.86,97.59,97.07,89.32,96,83V58.12ZM320.64,73.57c-4.9-14.42-9.67-28.42-14.43-42.43h-9.92V81.58h6.54v-41l.27,0q7,20.55,14,41.05h7l13.86-41,.36.08V81.54h6.44V31.16h-9.8ZM148.49,46.09c.56-5.8-1.85-10.75-6.74-13.46a23.88,23.88,0,0,0-20-1.57,13.62,13.62,0,0,0-8,7.26c-4.18,8.48-.75,16.3,8.29,18.92,1.13.33,2.29.59,3.44.87,4.38,1,8.79,2,13.14,3.18A5.71,5.71,0,0,1,143,65.57c1.14,4.42-.63,8.12-5,9.8a20.32,20.32,0,0,1-12.45.72c-4.74-1.17-7.52-4.17-8.17-9-.08-.58-.23-1.15-.35-1.69h-6.42a15.59,15.59,0,0,0,9.67,15.8c7,2.85,14,2.44,21-.26,8.47-3.29,10-10.68,8.37-17.58-1.24-5.43-5.48-7.8-10.43-9.12S129.05,51.61,124,50.3c-2.85-.74-4.78-2.42-5-5.49a7.52,7.52,0,0,1,3.8-7.27,12.72,12.72,0,0,1,19.29,8.26c0,.1.19.18.31.29Zm378.66,2.23c-2.38-1.35-4.5-3.08-6.93-3.83-7.57-2.34-15.15,1.81-18.12,9.57-1.77,4.62-1.83,9.42-1.24,14.21,1.22,9.77,9.87,15.58,19.34,12.8,2.47-.73,4.58-2.66,6.81-4-.15,2-.17,4.36-.53,6.67-.8,5.1-3.54,7.51-8.82,8-5.1.49-8-1-9.58-5.1h-6.36c.43,4.44,2.56,7.66,6.64,9a29.75,29.75,0,0,0,8.89,1.44c9.27.1,15.2-5.34,15.48-14.61.37-12.34.23-24.69.3-37a1.55,1.55,0,0,0-.21-.53h-5.67Zm-266.31.38a7.51,7.51,0,0,1-.68-.51c-7-7-17.69-5.61-22.63,2.92a24.93,24.93,0,0,0-2.17,20.52c2.65,8.62,10.33,13.21,18.33,10.76,2.78-.85,5.18-3,7.71-4.45v3.64h5.54V31.18h-6.1Zm208.47,7.14c1.17-1.86,1.87-3.74,3.21-4.93,2.62-2.33,9.61-2.14,12.42,0,1.85,1.45,2.13,3.42,1.71,5.59-.37,2-1.84,2.47-3.57,2.66a57,57,0,0,0-5.72.77c-3.3.71-6.75,1.16-9.78,2.51-4.46,2-5.82,6.06-5.44,10.69a10.22,10.22,0,0,0,7.74,9.24,23,23,0,0,0,7.45.22c3.74-.43,6.78-2.55,9.55-5.14,1.25,4.94,3.71,6.81,10.1,4.71V77.48c-3.78.27-3.91.15-3.91-3.53,0-6.42,0-12.85,0-19.28,0-5-2-7.83-6.74-9.52a22.06,22.06,0,0,0-14.59-.21c-5.36,1.77-7.61,5.12-7.58,10.9Zm97.88,14.32c-3,6.33-7.11,8.51-13,7-4.34-1.07-7.28-6-7-12H573.7c0-2.18.11-4.17,0-6.14-.54-7.92-4.83-13-12.32-14.79A16.4,16.4,0,0,0,543.06,52a23.11,23.11,0,0,0-2.95,11.44c-.4,13.54,9.06,21.86,21.59,19,5.95-1.36,11.16-7,11.42-12.33ZM385.86,65.3c0-2.25.11-4.24,0-6.21-.55-7.93-4.83-13-12.34-14.78a16.39,16.39,0,0,0-18.28,7.76,23,23,0,0,0-2.94,11.44c-.38,13.54,9.09,21.84,21.61,19,5.95-1.36,11.25-7.08,11.37-12.3h-5.91c-3,6.28-7.13,8.51-13.06,7C362,76.13,359,71.06,359.34,65.3ZM190,65.27c0-2.27.15-4.27,0-6.24-.44-4.79-2-9.08-6.13-12-8.94-6.29-21.06-3.12-25.33,6.91a27.43,27.43,0,0,0-2,9.64C156.08,76.32,164.22,83.84,175,83c7.23-.57,13.55-5.9,14.5-12.79h-6.07c-2.81,6.22-7.15,8.52-13.09,7-4.33-1.11-7.41-6.42-6.82-11.92Zm236.4,4.92c.31,4.38,1.78,8.06,5.4,10.54,4.81,3.29,15.44,3.12,20.18-.3a11.26,11.26,0,0,0,4.89-11c-.48-4.52-3.54-6.55-7.47-7.74-1.2-.37-2.42-.67-3.62-1-3-.85-6-1.57-8.92-2.61a4.06,4.06,0,0,1-2.9-4.67c.31-2.22,1.88-3.26,3.86-3.76,6-1.51,9.7.27,12.17,5.67h5.76a11.08,11.08,0,0,0-3.1-7.55c-5.24-5.54-17.65-5.27-22.64.47-4.76,5.49-3.09,12.59,3.64,15.36a33.11,33.11,0,0,0,3.57,1.17c3.48,1,7,1.79,10.43,3a4.34,4.34,0,0,1,1.38,7.6c-3.42,2.73-7.4,2.66-11.41,1.57-3.37-.92-4.82-3.39-5.11-6.75Zm-5.81-14.78a11.19,11.19,0,0,0-3.28-7.79c-5.2-5.25-17.1-5-22.18.35s-3.51,12.84,3.38,15.67a30.13,30.13,0,0,0,3.36,1.13c3.55,1,7.16,1.81,10.65,3a4.41,4.41,0,0,1,1.35,7.65c-5.42,4.83-15.13,1.82-16.64-5.22h-5.91c.13,6.21,3.77,11.12,9.42,12.16a36,36,0,0,0,9.28.43c4.49-.35,8.23-2.34,10.47-6.49,3.24-6,1-12-5.46-14.24-2.51-.87-5.12-1.41-7.66-2.19a33.29,33.29,0,0,1-6.46-2.23c-3-1.67-3-5.42-.05-7.23,4.92-3.07,12.14-.49,13.85,5ZM197.75,44.92v36.6H204c0-1.35,0-2.53,0-3.71.09-6.64,0-13.3.34-19.93.26-5.11,5-8.82,10.32-8.59,4.54.2,6.6,2.94,6.68,8.88v21.5c0,.64.06,1.28.1,1.88h6.37c0-8.84.28-17.56-.09-26.24-.34-8-4.45-11.41-12.48-11.4-4.49,0-8.07,1.9-11.43,5.42V44.92Z"/><path class="cls-2" d="M0,98.5c3.19,5.11,7.19,9.4,12.63,12.14A10.1,10.1,0,0,0,17,111.76q45.74.1,91.47,0,232.56,0,465.12,0a7.5,7.5,0,0,0,4.89-1.63c5.73-4.46,9.15-10,9.1-17.53q-.21-32.18,0-64.34c.07-10.69-4.76-18.63-13.07-24.8A60.44,60.44,0,0,0,568.41,0H588V112.25H0Z"/><path class="cls-3" d="M15.58,0A34.55,34.55,0,0,0,0,13.75V0Z"/><path class="cls-4" d="M320.64,73.57l14.3-42.41h9.8V81.54H338.3V40.65l-.36-.08-13.86,41h-7q-7-20.48-14-41.05l-.27,0v41h-6.54V31.14h9.92C311,45.15,315.74,59.15,320.64,73.57Z"/><path class="cls-5" d="M96,83c1,6.36-6.17,14.63-13.61,14.62-18.75,0-37.5,0-56.25,0-8,0-14.6-8.5-13.59-14.59,3.23.15,6.47.44,9.71.37A3.72,3.72,0,0,0,25,81.65a79.18,79.18,0,0,0,3.69-8.12c.16-.4-.39-1.1-.61-1.65-.46-1.13-1-2.23-1.35-3.4a6.33,6.33,0,0,1,0-1.94l.68.06.45,1,1,2,.62,1.14c.7,1.89.1,3.54-.79,5.21s-1.55,3.33-2.29,5c-.66,1.51-1.29,3-1.93,4.57l.4.44,1.42-.71.84-.17c2-.37,4.09-.66,6.1-1.14a24.6,24.6,0,0,0,3.31-1.33l.83-.17,2.72-.76h.79c2,1,3.89,2.1,5.94,2.89a17.73,17.73,0,0,0,3.9.57l.84.1c2.09,1.67,6.51,1.7,9,.06l1.28-.15,3.17-.75,1.51-.41,3.38-1.42.67-.29,2-1.09,1.13-.68,1.06-.74.73-.58,1-.79,4-4,.81-1,.57-.74.75-1.06,1-1.62.88-.52c0,.54.27,1.22,0,1.58a32.62,32.62,0,0,1-3.64,5c-2.31,2.39-4.87,4.56-7.36,6.85Z"/><path class="cls-3" d="M148.49,46.09h-6.1c-.12-.11-.29-.19-.31-.29a12.72,12.72,0,0,0-19.29-8.26,7.52,7.52,0,0,0-3.8,7.27c.21,3.07,2.14,4.75,5,5.49,5.07,1.31,10.18,2.53,15.25,3.89s9.19,3.69,10.43,9.12c1.58,6.9.1,14.29-8.37,17.58-7,2.7-14,3.11-21,.26a15.59,15.59,0,0,1-9.67-15.8H117c.12.54.27,1.11.35,1.69.65,4.88,3.43,7.88,8.17,9A20.32,20.32,0,0,0,138,75.37c4.37-1.68,6.14-5.38,5-9.8a5.71,5.71,0,0,0-4.35-4.28c-4.35-1.17-8.76-2.13-13.14-3.18-1.15-.28-2.31-.54-3.44-.87-9-2.62-12.47-10.44-8.29-18.92a13.62,13.62,0,0,1,8-7.26,23.88,23.88,0,0,1,20,1.57C146.64,35.34,149.05,40.29,148.49,46.09Z"/><path class="cls-6" d="M527.15,48.32v-3.4h5.67a1.55,1.55,0,0,1,.21.53c-.07,12.35.07,24.7-.3,37-.28,9.27-6.21,14.71-15.48,14.61a29.75,29.75,0,0,1-8.89-1.44c-4.08-1.34-6.21-4.56-6.64-9h6.36c1.61,4.06,4.48,5.59,9.58,5.1,5.28-.51,8-2.92,8.82-8,.36-2.31.38-4.68.53-6.67-2.23,1.34-4.34,3.27-6.81,4-9.47,2.78-18.12-3-19.34-12.8-.59-4.79-.53-9.59,1.24-14.21,3-7.76,10.55-11.91,18.12-9.57C522.65,45.24,524.77,47,527.15,48.32Zm.32,14.27A58.47,58.47,0,0,0,526,55.41a9.1,9.1,0,0,0-8.9-6.12,8.75,8.75,0,0,0-8.77,6.22,23.32,23.32,0,0,0-.66,13.31c1.1,4.62,4,7.16,8.22,7.44a9.36,9.36,0,0,0,9.87-6.36A60.35,60.35,0,0,0,527.47,62.59Z"/><path class="cls-7" d="M260.84,48.7V31.18h6.1v50.4H261.4V77.94c-2.53,1.5-4.93,3.6-7.71,4.45-8,2.45-15.68-2.14-18.33-10.76a24.93,24.93,0,0,1,2.17-20.52c4.94-8.53,15.66-9.88,22.63-2.92A7.51,7.51,0,0,0,260.84,48.7Zm.79,14.49-.42-.12c-.13-1.47-.18-3-.4-4.41-.84-5.39-4.26-8.95-8.9-9.35s-8.65,2.53-10.07,7.4a22.22,22.22,0,0,0,.67,15.18A8.77,8.77,0,0,0,251,77.58a8.19,8.19,0,0,0,8.25-5.29C260.43,69.42,260.87,66.24,261.63,63.19Z"/><path class="cls-8" d="M25.84,14.3q21.79,0,43.59-.07c4.3,0,8.6,0,12.9.06a7.25,7.25,0,0,0,2,1,11.32,11.32,0,0,1,8.16,5.09c.27.42.94.59,1.43.88a.18.18,0,0,1,.14.24l.33,2a12.58,12.58,0,0,1-3.09.84c-7.77.08-15.55,0-23.33.08a8.71,8.71,0,0,0-2.53.86H64.1c-.48-2.27-2-1-3.13-.88H52.09c-1.28-.06-2.92-1.54-3.58.88h-.87a6.73,6.73,0,0,0-2.16-.86c-9.15-.06-18.29,0-27.44-.08a18.28,18.28,0,0,1-3.79-.84l.83-2.77a.32.32,0,0,1,.19-.31,5.11,5.11,0,0,0,1.27-.81,14.16,14.16,0,0,1,7.93-4.5A5.07,5.07,0,0,0,25.84,14.3Z"/><path class="cls-6" d="M469.31,55.84h-5.16c0-5.78,2.22-9.13,7.58-10.9a22.06,22.06,0,0,1,14.59.21c4.74,1.69,6.71,4.51,6.74,9.52,0,6.43,0,12.86,0,19.28,0,3.68.13,3.8,3.91,3.53V82.2c-6.39,2.1-8.85.23-10.1-4.71-2.77,2.59-5.81,4.71-9.55,5.14a23,23,0,0,1-7.45-.22,10.22,10.22,0,0,1-7.74-9.24c-.38-4.63,1-8.72,5.44-10.69,3-1.35,6.48-1.8,9.78-2.51a57,57,0,0,1,5.72-.77c1.73-.19,3.2-.67,3.57-2.66.42-2.17.14-4.14-1.71-5.59-2.81-2.18-9.8-2.37-12.42,0C471.18,52.1,470.48,54,469.31,55.84Zm17.32,7.73c-3.38.6-6.57,1.14-9.74,1.75a28.33,28.33,0,0,0-4.29,1.07,5.64,5.64,0,0,0,.61,10.89,10.45,10.45,0,0,0,13.42-10C486.65,66,486.63,64.79,486.63,63.57Z"/><path class="cls-3" d="M567.19,70.16h5.93c-.26,5.37-5.47,11-11.42,12.33-12.53,2.85-22-5.47-21.59-19A23.11,23.11,0,0,1,543.06,52a16.4,16.4,0,0,1,18.3-7.72c7.49,1.77,11.78,6.87,12.32,14.79.13,2,0,4,0,6.14H547.15c-.28,6,2.66,10.89,7,12C560.08,78.67,564.15,76.49,567.19,70.16Zm-20-10.41h19.92c-.28-6.52-3.68-10.22-9.49-10.45C552,49.07,547.92,53.11,547.22,59.75Z"/><path class="cls-3" d="M385.86,65.3H359.34c-.38,5.76,2.61,10.83,6.94,11.91,5.93,1.48,10.1-.75,13.06-7h5.91c-.12,5.22-5.42,10.94-11.37,12.3-12.52,2.87-22-5.43-21.61-19a23,23,0,0,1,2.94-11.44,16.39,16.39,0,0,1,18.28-7.76c7.51,1.77,11.79,6.85,12.34,14.78C386,61.06,385.86,63.05,385.86,65.3Zm-26.48-5.54H379.3c-.27-6.52-3.67-10.22-9.48-10.46C364.17,49.07,360.1,53.09,359.38,59.76Z"/><path class="cls-3" d="M190,65.27H163.55c-.59,5.5,2.49,10.81,6.82,11.92,5.94,1.53,10.28-.77,13.09-7h6.07c-.95,6.89-7.27,12.22-14.5,12.79-10.81.85-18.95-6.67-18.54-19.42a27.43,27.43,0,0,1,2-9.64c4.27-10,16.39-13.2,25.33-6.91C188,50,189.53,54.24,190,59,190.15,61,190,63,190,65.27ZM163.56,59.8h19.88c-.18-6.5-3.73-10.35-9.61-10.51C168.17,49.14,164,53.35,163.56,59.8Z"/><path class="cls-7" d="M426.4,70.19h6.11c.29,3.36,1.74,5.83,5.11,6.75,4,1.09,8,1.16,11.41-1.57a4.34,4.34,0,0,0-1.38-7.6c-3.41-1.18-6.95-2-10.43-3a33.11,33.11,0,0,1-3.57-1.17c-6.73-2.77-8.4-9.87-3.64-15.36,5-5.74,17.4-6,22.64-.47a11.08,11.08,0,0,1,3.1,7.55H450c-2.47-5.4-6.19-7.18-12.17-5.67-2,.5-3.55,1.54-3.86,3.76a4.06,4.06,0,0,0,2.9,4.67c2.91,1,5.94,1.76,8.92,2.61,1.2.35,2.42.65,3.62,1,3.93,1.19,7,3.22,7.47,7.74a11.26,11.26,0,0,1-4.89,11c-4.74,3.42-15.37,3.59-20.18.3C428.18,78.25,426.71,74.57,426.4,70.19Z"/><path class="cls-7" d="M420.59,55.41h-5.88c-1.71-5.48-8.93-8.06-13.85-5-2.9,1.81-3,5.56.05,7.23a33.29,33.29,0,0,0,6.46,2.23c2.54.78,5.15,1.32,7.66,2.19,6.42,2.21,8.7,8.26,5.46,14.24-2.24,4.15-6,6.14-10.47,6.49a36,36,0,0,1-9.28-.43c-5.65-1-9.29-6-9.42-12.16h5.91c1.51,7,11.22,10.05,16.64,5.22a4.41,4.41,0,0,0-1.35-7.65c-3.49-1.2-7.1-2-10.65-3a30.13,30.13,0,0,1-3.36-1.13C391.62,60.81,390,53.39,395.13,48s17-5.6,22.18-.35A11.19,11.19,0,0,1,420.59,55.41Z"/><path class="cls-3" d="M197.75,44.92h6v4.41c3.36-3.52,6.94-5.42,11.43-5.42,8,0,12.14,3.38,12.48,11.4.37,8.68.09,17.4.09,26.24h-6.37c0-.6-.1-1.24-.1-1.88V58.17c-.08-5.94-2.14-8.68-6.68-8.88-5.31-.23-10.06,3.48-10.32,8.59-.34,6.63-.25,13.29-.34,19.93,0,1.18,0,2.36,0,3.71h-6.23Z"/><path class="cls-9" d="M14.25,23.52a18.28,18.28,0,0,0,3.79.84c9.15.08,18.29,0,27.44.08a6.73,6.73,0,0,1,2.16.86,4.7,4.7,0,0,1-1.18.85A31.24,31.24,0,0,0,35.63,32l-1.35.87c-2-.15-4-.41-5.93-.43-5.26-.06-10.52,0-15.77,0V27.52Z"/><path class="cls-9" d="M65.42,25.3A8.71,8.71,0,0,1,68,24.44c7.78-.06,15.56,0,23.33-.08a12.58,12.58,0,0,0,3.09-.84L96,27.08c0,2.21,0,4.42,0,6.63-4.43,0-8.87.1-13.31,0a38,38,0,0,1-4.84-1,3.91,3.91,0,0,0-1.45.38l-.82-.55c-.31-.86-.37-2.09-1-2.49a59.1,59.1,0,0,0-5.76-3Z"/><path class="cls-10" d="M96,83H73.56c2.49-2.29,5-4.46,7.36-6.85a32.62,32.62,0,0,0,3.64-5c.24-.36,0-1,0-1.58l-.09-1,.27-.67,2.5-5.44c1.27,2.18-.25,3.91-1,5.75S86,71,87.88,71c2.72,0,5.43-.27,8.15-.42Z"/><path class="cls-11" d="M12.58,32.38c5.25,0,10.51,0,15.77,0,2,0,3.95.28,5.93.43l.43,1.72-1.78,1.83c-.68.17-1.62.12-2,.55a24.67,24.67,0,0,0-2.85,3.88,3.09,3.09,0,0,1-3.16,1.81c-4.11-.25-8.22-.33-12.33-.48Z"/><path class="cls-10" d="M28.05,71.88c.22.55.77,1.25.61,1.65A79.18,79.18,0,0,1,25,81.65a3.72,3.72,0,0,1-2.68,1.68c-3.24.07-6.48-.22-9.71-.37V71.87c4,.15,8,.34,12,.43A25.24,25.24,0,0,0,28.05,71.88Z"/><path class="cls-12" d="M76.43,33.08a3.91,3.91,0,0,1,1.45-.38,38,38,0,0,0,4.84,1c4.44.14,8.88,0,13.31,0V45.25c-2.49,0-5,.09-7.48,0A3,3,0,0,1,86.62,44c-1.22-1.72-2.15-3.64-3.42-5.32-.51-.67-1.61-.89-2.45-1.32Z"/><path class="cls-13" d="M28.05,71.88a25.24,25.24,0,0,1-3.44.42c-4-.09-8-.28-12-.43V63c3.52.15,7,.29,10.56.45,1.31.06,1.62-.79,1.24-1.71-1.55-3.76-.82-7.45.1-11.16l1.28.36-.05.15c-.25.3-.72.6-.73.9-.06,2.48-.06,4.95,0,7.43,0,.32.45.63.69.94l.15.87.17.91.21.89.3.89.21.86v1.76a6.33,6.33,0,0,0,0,1.94C27.05,69.65,27.59,70.75,28.05,71.88Z"/><path class="cls-14" d="M24.48,50.58c-.92,3.71-1.65,7.4-.1,11.16.38.92.07,1.77-1.24,1.71-3.52-.16-7-.3-10.56-.45V50.56Z"/><path class="cls-15" d="M24.48,50.58l-11.9,0V42.15c4.11.15,8.22.23,12.33.48a3.09,3.09,0,0,0,3.16-1.81,24.67,24.67,0,0,1,2.85-3.88c.39-.43,1.33-.38,2-.55a37.65,37.65,0,0,0-7.17,14.55Z"/><path class="cls-16" d="M96,70.54c-2.72.15-5.43.37-8.15.42-1.91,0-2.36-.9-1.64-2.72s2.24-3.57,1-5.75c-.11-.42-.22-.83-.32-1.24l.2-1.29.21-2.27c0-1.48,0-3,0-4.45l-.19-1.79-.13-.8.67-.53a6.43,6.43,0,0,1,.93,2.07c.22,5.32.8,5.94,5.95,5.93H96Z"/><path class="cls-17" d="M96,58.12H94.49c-5.15,0-5.73-.61-5.95-5.93a6.43,6.43,0,0,0-.93-2.07l-1-.91-.19-.86q-.81-2.22-1.64-4.46l-2-3.8L81.94,39l-1.19-1.68c.84.43,1.94.65,2.45,1.32,1.27,1.68,2.2,3.6,3.42,5.32a3,3,0,0,0,1.93,1.2c2.49.14,5,0,7.48,0Z"/><path class="cls-18" d="M93.9,21.3c-.49-.29-1.16-.46-1.43-.88a11.32,11.32,0,0,0-8.16-5.09,7.25,7.25,0,0,1-2-1C86.93,14.09,92.16,17.26,93.9,21.3Z"/><path class="cls-18" d="M25.84,14.3a5.07,5.07,0,0,1-1.37.83,14.16,14.16,0,0,0-7.93,4.5,5.11,5.11,0,0,1-1.27.81A12.11,12.11,0,0,1,25.84,14.3Z"/><path class="cls-18" d="M14.25,23.52l-1.68,4a8.34,8.34,0,0,1,2.51-6.77C14.8,21.67,14.52,22.59,14.25,23.52Z"/><path class="cls-14" d="M96,27.08l-1.65-3.56-.33-2Z"/><path class="cls-19" d="M80.75,37.36,81.94,39l.74,1.05,2,3.8q.83,2.23,1.64,4.46c.07.29.13.57.19.86.13.48.25,1,.38,1.44,0,.27.09.53.13.8.07.59.13,1.19.19,1.79,0,1.48,0,3,0,4.45L87.09,60c-.07.43-.14.86-.2,1.29-.73,2.23-1.46,4.45-2.18,6.68l-.27.67-.79,1.49-1,1.62-.75,1.06c-.19.25-.38.49-.56.74l-.82,1-4,4-1,.79-.73.58-1.06.74-1.13.68-2,1.09-.67.29-3.38,1.42-1.51.41-3.17.75-1.28.15-9-.06-.84-.1L40.9,81.78h-.79l-2.72.76-.83.17-9.41,2.47-.84.17a5.75,5.75,0,0,1,0-2.11c1.26-3,2.61-6,4-9,.67-1.42.55-2.52-.83-3.38l-.62-1.14-1-2-.45-1-.69-1.82-.21-.86L26.2,63,26,62.14c-.06-.3-.11-.61-.17-.91l-.15-.87q0-4.63,0-9.27l.05-.15a37.65,37.65,0,0,1,7.17-14.55l1.78-1.83.91-.8c.43-.28.89-.52,1.3-.83a31.47,31.47,0,0,1,23.59-6.42,34.71,34.71,0,0,1,15.1,6l.82.55Zm-38.5-1.63-1.4.92-1.74,1.48a19.1,19.1,0,0,0-7,10.69L31.53,51l-.3,1.81-.14,5.75.12.88.29,1.72.36,1.18c.27.79.54,1.59.8,2.39l1.43,2.92.68,1.09,1.1,1.57.6.7-.39,2.66-.63,1.13-1.2,1.94-.71,1.12-.72,1.4a56.37,56.37,0,0,0,6.65-2.19,16.17,16.17,0,0,1,3.71-.33l1.16.61c.2.2.36.5.6.61a26.17,26.17,0,0,0,21.56.61,25.14,25.14,0,0,0,3.55-2.11.35.35,0,0,0,.27-.16l1.08-.71a.36.36,0,0,0,.26-.16l1.53-1.16,3.08-3.1a13.33,13.33,0,0,0,4.26-7.73l.09-1.24,1-2.79,0-6.56-2.31-7.34L79,44.74l-.92-1.52-1-1.51-.82-1.05-1.92-2-6-4.19-.13,0h.13l-1-.58-1-.33-2.56-.91-.53,0-1.67-.57L60.54,32H52.08l-.88.13-1.66.56a.12.12,0,0,0-.19,0L45.54,34l-2,.9-1.19.79Z"/><path class="cls-20" d="M29.5,70.83c1.38.86,1.5,2,.83,3.38-1.41,3-2.76,6-4,9a5.75,5.75,0,0,0,0,2.11l-1.42.71-.4-.44c.64-1.52,1.27-3.06,1.93-4.57.74-1.69,1.42-3.4,2.29-5S30.2,72.72,29.5,70.83Z"/><path class="cls-20" d="M51.58,85.34l9,.06C58.09,87,53.67,87,51.58,85.34Z"/><path class="cls-20" d="M40.9,81.78l9.84,3.46a17.73,17.73,0,0,1-3.9-.57C44.79,83.88,42.87,82.76,40.9,81.78Z"/><path class="cls-20" d="M27.15,85.19l9.41-2.47a24.6,24.6,0,0,1-3.31,1.33C31.24,84.53,29.19,84.82,27.15,85.19Z"/><path class="cls-20" d="M66.56,84.09l3.38-1.42Z"/><path class="cls-20" d="M61.88,85.25l3.17-.75Z"/><path class="cls-20" d="M37.39,82.55l2.72-.76Z"/><path class="cls-20" d="M70.61,82.38l2-1.09Z"/><path class="cls-15" d="M26.71,64.78l.69,1.82-.68-.06C26.72,66,26.72,65.37,26.71,64.78Z"/><path class="cls-20" d="M27.85,67.64l1,2Z"/><path class="cls-20" d="M83.65,70.09l.79-1.49.09,1Z"/><path class="cls-20" d="M81.91,72.77l.75-1.06Z"/><path class="cls-20" d="M80.53,74.52l.82-1Z"/><path class="cls-20" d="M75.51,79.29l1-.79Z"/><path class="cls-20" d="M73.72,80.61l1.06-.74Z"/><path class="cls-21" d="M527.47,62.59a60.35,60.35,0,0,1-1.73,7.31,9.36,9.36,0,0,1-9.87,6.36c-4.2-.28-7.12-2.82-8.22-7.44a23.32,23.32,0,0,1,.66-13.31,8.75,8.75,0,0,1,8.77-6.22,9.1,9.1,0,0,1,8.9,6.12A58.47,58.47,0,0,1,527.47,62.59Z"/><path class="cls-21" d="M261.63,63.19c-.76,3-1.2,6.23-2.39,9.1A8.19,8.19,0,0,1,251,77.58a8.77,8.77,0,0,1-8.48-5.69,22.22,22.22,0,0,1-.67-15.18c1.42-4.87,5.57-7.78,10.07-7.4s8.06,4,8.9,9.35c.22,1.45.27,2.94.4,4.41Z"/><path class="cls-22" d="M75.61,32.53a34.71,34.71,0,0,0-15.1-6,31.47,31.47,0,0,0-23.59,6.42c-.41.31-.87.55-1.3.83,0-.6,0-1.19,0-1.79a31.24,31.24,0,0,1,10.83-5.82,4.7,4.7,0,0,0,1.18-.85h.87l3.58-.88H61l3.13.88h1.32l3.45,1.76a59.1,59.1,0,0,1,5.76,3C75.24,30.44,75.3,31.67,75.61,32.53Z"/><path class="cls-9" d="M52.09,24.41l-3.58.88C49.17,22.87,50.81,24.35,52.09,24.41Z"/><path class="cls-9" d="M64.1,25.29,61,24.41C62.12,24.33,63.62,23,64.1,25.29Z"/><path class="cls-21" d="M486.63,63.57c0,1.22,0,2.47,0,3.72a10.45,10.45,0,0,1-13.42,10,5.64,5.64,0,0,1-.61-10.89,28.33,28.33,0,0,1,4.29-1.07C480.06,64.71,483.25,64.17,486.63,63.57Z"/><path class="cls-21" d="M547.22,59.75c.7-6.64,4.78-10.68,10.43-10.45,5.81.23,9.21,3.93,9.49,10.45Z"/><path class="cls-21" d="M359.38,59.76c.72-6.67,4.79-10.69,10.44-10.46,5.81.24,9.21,3.94,9.48,10.46Z"/><path class="cls-21" d="M163.56,59.8c.48-6.45,4.61-10.66,10.27-10.51,5.88.16,9.43,4,9.61,10.51Z"/><path class="cls-15" d="M35.63,32c0,.6,0,1.19,0,1.79l-.91.8-.43-1.72Z"/><path class="cls-20" d="M84.71,67.93c.72-2.23,1.45-4.45,2.18-6.68.1.41.21.82.32,1.24Z"/><path class="cls-15" d="M25.71,51.09q0,4.63,0,9.27c-.24-.31-.68-.62-.69-.94-.06-2.48-.06-5,0-7.43C25,51.69,25.46,51.39,25.71,51.09Z"/><path class="cls-15" d="M26.2,63l.3.89Z"/><path class="cls-15" d="M25.82,61.23c.06.3.11.61.17.91C25.93,61.84,25.88,61.53,25.82,61.23Z"/><path class="cls-20" d="M87.09,60l.21-2.27Z"/><path class="cls-20" d="M86.94,50.65c-.13-.48-.25-1-.38-1.44l1,.91Z"/><path class="cls-20" d="M87.26,53.24c-.06-.6-.12-1.2-.19-1.79C87.14,52,87.2,52.64,87.26,53.24Z"/><path class="cls-20" d="M86.37,48.35q-.81-2.22-1.64-4.46Q85.56,46.13,86.37,48.35Z"/><path class="cls-20" d="M82.68,40.09,81.94,39Z"/><path class="cls-23" d="M39.11,38.13l1.74-1.48a1.15,1.15,0,0,0,.12.25l.36.63.49-.71,0,0,1.75-.9v-1l2-.9c.79.05,1.59.07,2.38.14,1.16.1,1.6-.45,1.43-1.55a.12.12,0,0,1,.19.06l1.66-.57.88-.13h8.46l.88.11,1.67.57.53,0c.06.41.12.82.18,1.2l2.38-.29,1,.33,1,.58h-.13l.13,0c.27.6.38,1.4.84,1.74,1.22.9,2.58,1.6,3.89,2.38.38.6.73,1.22,1.14,1.79,1,1.35,1.93,2.68,2.89,4-.82,1.68-2.09.41-3.12.41-7.49.06-15,0-22.47,0a13,13,0,0,0-1.24-2.65c-.26-.34-1.17-.19-1.78-.26a.31.31,0,0,1-.32-.22c0-.28,0-.56,0-.84.36-2.34-1.31-1.29-2.11-1.11-3,.67-5.05,2.67-6.75,5.08l-3.22-1c1.14-1.49,2.13-2.65,2.95-3.93C39.19,39.47,39.05,38.74,39.11,38.13Z"/><path class="cls-24" d="M39.11,38.13c-.06.61.08,1.34-.21,1.79-.82,1.28-1.81,2.44-2.95,3.93l3.22,1,.12,1.45v1.09a10.05,10.05,0,0,0-.08,2.56c.38,1.76,1,3.47,1.49,5.31l-8.2.67c.23-1.78.39-3.58.71-5.35.19-1,.29-1.77-1.08-1.72A19.1,19.1,0,0,1,39.11,38.13Z"/><path class="cls-5" d="M44.34,77.35l-1.16-.61c-.56-1.4-1.6-1.48-2.81-.95-1.67.72-3.3,1.54-5,2.17a4.66,4.66,0,0,1-1.84-.1l.71-1.12,1.2-1.94.63-1.13c1.67-1.08,1.73-1.49.39-2.66l-.6-.7.09-1,.09-.07c3.94,1.5,2.06,4,.49,6.87,1.17-.42,1.63-.53,2.05-.73a5.26,5.26,0,0,1,5.57.1c3.4,2,7.25,3.4,11.4,3.06a49.78,49.78,0,0,0,8.21-1C66,77,67.94,75.6,70,74.65a12.6,12.6,0,0,1,2.07-.56l0,0-.47,1.31a.36.36,0,0,1-.26.16l-1.08.71a.35.35,0,0,1-.27.16,15.7,15.7,0,0,0-2,.63,26.43,26.43,0,0,1-21.35.82A17.3,17.3,0,0,0,44.34,77.35Z"/><path class="cls-13" d="M32.13,48.82c1.37,0,1.27.7,1.08,1.72-.32,1.77-.48,3.57-.71,5.35.2,1.43.37,2.86.6,4.29.33,2,.72,4.06,1.08,6.09l-1.52-1.54c-.26-.8-.53-1.6-.8-2.39l-.36-1.18-.29-1.72-.12-.88c0-1.92.09-3.84.14-5.75l.3-1.81Z"/><path class="cls-20" d="M44.34,77.35a17.3,17.3,0,0,1,2.31.56A26.43,26.43,0,0,0,68,77.09a15.7,15.7,0,0,1,2-.63,25.14,25.14,0,0,1-3.55,2.11A26.17,26.17,0,0,1,44.94,78C44.7,77.85,44.54,77.55,44.34,77.35Z"/><path class="cls-25" d="M77,44.37c-1-1.33-1.94-2.66-2.89-4-.41-.57-.76-1.19-1.14-1.79l1.3.07,1.92,2L77,41.71l1,1.51L79,44.74l.36.77L81,52.36H79.68C79.84,49.35,78.55,46.82,77,44.37Z"/><path class="cls-13" d="M79.68,52.36H81l.63.49c0,2.19,0,4.37,0,6.56-.32.93-.65,1.86-1,2.79l-.09,1.24-.76.48-1,0,.88-2.23c.1-1.24.27-2.48.27-3.72s-.17-2.54-.26-3.82Z"/><path class="cls-26" d="M74.27,38.64,73,38.57c-1.31-.78-2.67-1.48-3.89-2.38-.46-.34-.57-1.14-.84-1.74Z"/><path class="cls-20" d="M33.54,77.86a4.66,4.66,0,0,0,1.84.1c1.69-.63,3.32-1.45,5-2.17,1.21-.53,2.25-.45,2.81.95a16.17,16.17,0,0,0-3.71.33,56.37,56.37,0,0,1-6.65,2.19Z"/><path class="cls-26" d="M60.54,32h0Z"/><path class="cls-5" d="M76.27,71.17l-3.08,3.1-1.06-.15,0,0,4.06-3.93Z"/><path class="cls-20" d="M76.27,71.17c0-.34-.07-.67-.1-1l0,0c.3-.45.6-.89.89-1.34h0l.9-1.34h0c.62-1.18,1.24-2.36,1.85-3.54l.76-.48A13.33,13.33,0,0,1,76.27,71.17Z"/><path class="cls-26" d="M81.64,52.85,81,52.36l-1.68-6.85Z"/><path class="cls-26" d="M49.35,32.6c.17,1.1-.27,1.65-1.43,1.55-.79-.07-1.59-.09-2.38-.14Z"/><path class="cls-5" d="M34.77,68.74l-.68-1.09.12-1.14,1.84.94v1.77l-.09.07Z"/><path class="cls-26" d="M80.62,62.2c.33-.93.66-1.86,1-2.79Z"/><path class="cls-20" d="M34.2,66.51c0,.38-.07.76-.11,1.14-.48-1-1-2-1.43-2.92l1.52,1.53C34.19,66.34,34.19,66.43,34.2,66.51Z"/><path class="cls-20" d="M36.47,71c1.34,1.17,1.28,1.58-.39,2.66Z"/><path class="cls-26" d="M66.18,33.56l-2.38.29c-.06-.38-.12-.79-.18-1.2Z"/><path class="cls-24" d="M31.53,51l-.3,1.81Z"/><path class="cls-20" d="M35.45,74.8l-1.2,1.94Z"/><path class="cls-20" d="M34.77,68.74l1.19.55-.09,1Z"/><path class="cls-20" d="M72.13,74.12l1.06.15-1.53,1.16Z"/><path class="cls-26" d="M63.09,32.63l-1.67-.57Z"/><path class="cls-26" d="M51.2,32.09l-1.66.57Z"/><path class="cls-24" d="M43.59,35.9l-1.75.9c.14-.35.27-.71.41-1.07l.14,0Z"/><path class="cls-26" d="M79,44.74l-.92-1.52Z"/><path class="cls-26" d="M42.25,35.73c-.14.36-.27.72-.41,1.07l0,0L41,36.9a1.15,1.15,0,0,1-.12-.25Z"/><path class="cls-20" d="M31.09,58.56l.12.88Z"/><path class="cls-20" d="M70.32,76.3l1.08-.71Z"/><path class="cls-26" d="M77,41.71l-.82-1.05Z"/><path class="cls-26" d="M68.24,34.47l-1-.58Z"/><path class="cls-20" d="M31.5,61.16l.36,1.18Z"/><path class="cls-26" d="M43.59,35.9l-1.2-.2,1.19-.79C43.58,35.24,43.59,35.57,43.59,35.9Z"/><path class="cls-27" d="M48.07,41.68a.31.31,0,0,0,.32.22c.56,1.55,1.13,3.09,1.7,4.64l.44,1L51,48.75l.06,1a12.19,12.19,0,0,1-1.31,1.7c-1.36,1.27-1.38,2.43.14,3.56l.8,1,3.56,3.49,1,.79,1.59,1,2.86,1.48,1.82-1,.78-1a.29.29,0,0,0,.16-.26l2.15-1.19.68.26A51.09,51.09,0,0,1,70,62.35,9.68,9.68,0,0,1,71.7,64.8l-.3.61-.6,1.16a.29.29,0,0,0-.16.25l-.72,1.08-1.35,1.37-1,.75-.71.29a50.07,50.07,0,0,1-5.36-.4,44.33,44.33,0,0,1-5-1.45l-.64-.28-2-1.11L50,64.27l-3.11-3.18-.58-.73-.79-1a.37.37,0,0,0-.18-.3l-2.83-4.67a.22.22,0,0,0-.21-.24l-.65-1.73-.5-1.14-.39-1.56V45.65l3.76-3.76.91-.3.88-.18Z"/><path class="cls-17" d="M50.09,46.54C49.52,45,49,43.45,48.39,41.9c.61.07,1.52-.08,1.78.26a13,13,0,0,1,1.24,2.65c7.49,0,15,0,22.47,0,1,0,2.3,1.27,3.12-.41,1.55,2.45,2.84,5,2.68,8v1.77H51.19c-1.81-1.56.15-2.45.78-3.32C53.25,49,52.73,48,51.1,47Z"/><path class="cls-17" d="M44.46,41.89,40.7,45.65l-1.41.61-.12-1.45c1.7-2.41,3.76-4.41,6.75-5.08.8-.18,2.47-1.23,2.11,1.11l-1.78.57-.88.18Z"/><path class="cls-20" d="M46.25,41.41,48,40.84c0,.28,0,.56,0,.84Z"/><path class="cls-24" d="M41,36.9l.85-.08-.49.71Z"/><path class="cls-28" d="M41.6,52.41l.65,1.73a3.61,3.61,0,0,0-.76,1c0,.15.53.47.83.71h0l.9,1.33h0l.9,1.33h0a3.71,3.71,0,0,0,2.64,3.57c.8,1.17,1.63,2.32,2.39,3.52A2.16,2.16,0,0,1,49.5,67c0,.16-.72.36-1.12.36-4.11.07-8.22.1-12.33.14l-1.84-.94a2.13,2.13,0,0,1,0-.25c-.36-2-.75-4.05-1.08-6.08-.23-1.43-.4-2.86-.6-4.29l8.2-.67c-.53-1.84-1.11-3.55-1.49-5.31a10.05,10.05,0,0,1,.08-2.56c.47.79.94,1.58,1.42,2.36l.39,1.56Z"/><path class="cls-20" d="M40.71,49.71c-.48-.78-1-1.57-1.42-2.36V46.26l1.41-.61C40.7,47,40.7,48.36,40.71,49.71Z"/><path class="cls-29" d="M36.05,67.45c4.11,0,8.22-.07,12.33-.14.4,0,1.1-.2,1.12-.36a2.16,2.16,0,0,0-.37-1.31c-.76-1.2-1.59-2.35-2.39-3.52l.09-.07L50,64.27l3.88,2.8,2,1.11.64.28c2.61,2.19,5.81,2.51,9,2.8.42,0,.9-.62,1.35-1l.71-.29,1-.75,1.35-1.37.72-1.08a.29.29,0,0,1,.16-.25l.6-1.16.3-.61c.26-.59.51-1.18.76-1.77,1.74.46.94,1.66.69,2.6A21.78,21.78,0,0,1,72,68.22l4.09.56,0,1.35,0,0-4.06,3.93a12.6,12.6,0,0,0-2.07.56c-2.1.95-4.08,2.32-6.27,2.88a49.78,49.78,0,0,1-8.21,1c-4.15.34-8-1.1-11.4-3.06a5.26,5.26,0,0,0-5.57-.1c-.42.2-.88.31-2.05.73,1.57-2.83,3.45-5.37-.49-6.87Z"/><path class="cls-25" d="M51.19,54.13H79.68c.09,1.28.26,2.55.26,3.82s-.17,2.48-.27,3.72c-1.8.06-3.75.59-5.38.09a60.22,60.22,0,0,1-9-3.78c-1.89-.94-2.67-.37-3,1.47-1.1.44-2.54,1.54-3.26,1.19C55.94,59.14,52.81,57.48,51.19,54.13Z"/><path class="cls-16" d="M62.31,59.45c.34-1.84,1.12-2.41,3-1.47a60.22,60.22,0,0,0,9,3.78c1.63.5,3.58,0,5.38-.09l-.88,2.23-.87,3.56h0L77,68.8h-.91L72,68.22a21.78,21.78,0,0,0,1.12-2.59c.25-.94,1-2.14-.69-2.6l-7.2-3.45-.68-.26-2.18.2Z"/><path class="cls-5" d="M77.92,67.46l.87-3.56,1,0C79.16,65.1,78.54,66.28,77.92,67.46Z"/><path class="cls-5" d="M77,68.8l.9-1.34Z"/><path class="cls-5" d="M76.12,68.78H77c-.29.45-.59.89-.89,1.34C76.13,69.68,76.13,69.23,76.12,68.78Z"/><path class="cls-16" d="M51.19,54.13c1.62,3.35,4.75,5,7.86,6.51.72.35,2.16-.75,3.26-1.19l.09.07,0,1a.29.29,0,0,1-.16.26l-.78,1-1.82,1-2.86-1.48-1.59-1-1-.79L50.66,56l-.8-1c-1.52-1.13-1.5-2.29-.14-3.56A12.19,12.19,0,0,0,51,49.76l-.06-1-.44-1.22L51.1,47c1.63,1,2.15,2,.87,3.79C51.34,51.68,49.38,52.57,51.19,54.13Z"/><path class="cls-20" d="M66.83,70.31c-.45.33-.93,1-1.35,1-3.19-.29-6.39-.61-9-2.8a44.33,44.33,0,0,0,5,1.45A50.07,50.07,0,0,0,66.83,70.31Z"/><path class="cls-20" d="M65.26,59.58,72.46,63c-.25.59-.5,1.18-.76,1.77A9.68,9.68,0,0,0,70,62.35,51.09,51.09,0,0,0,65.26,59.58Z"/><path class="cls-20" d="M42.46,54.38l2.83,4.67-1.19-.5h0l-.9-1.33h0l-.9-1.33h0C42.37,55.38,42.41,54.88,42.46,54.38Z"/><path class="cls-29" d="M44.1,58.55l1.19.5a.37.37,0,0,1,.18.3c.27.33.53.67.79,1s.39.49.58.73c0,.32,0,.64,0,1l-.09.07A3.71,3.71,0,0,1,44.1,58.55Z"/><path class="cls-20" d="M46.83,62.05c0-.32,0-.64,0-1L50,64.27Z"/><path class="cls-20" d="M56.81,61.34l2.86,1.48Z"/><path class="cls-20" d="M62.43,60.51l0-1,2.18-.2Z"/><path class="cls-20" d="M55.84,68.18l-2-1.11Z"/><path class="cls-29" d="M42.46,54.38c-.05.5-.09,1-.14,1.5-.3-.24-.87-.56-.83-.71a3.61,3.61,0,0,1,.76-1A.22.22,0,0,1,42.46,54.38Z"/><path class="cls-20" d="M51.1,47l-.57.51-.44-1Z"/><path class="cls-20" d="M49.86,55l.8,1Z"/><path class="cls-20" d="M46.26,60.36c-.26-.34-.52-.68-.79-1C45.74,59.68,46,60,46.26,60.36Z"/><path class="cls-20" d="M54.22,59.51l1,.79Z"/><path class="cls-20" d="M68.57,69.27l-1,.75Z"/><path class="cls-20" d="M70.64,66.82l-.72,1.08Z"/><path class="cls-20" d="M71.4,65.41l-.6,1.16Z"/><path class="cls-20" d="M44.46,41.89l.91-.3Z"/><path class="cls-20" d="M61.49,61.78l.78-1Z"/><path class="cls-20" d="M41.6,52.41l-.5-1.14Z"/><path class="cls-20" d="M51,48.75l.06,1Z"/><path class="cls-29" d="M43.2,57.21l.9,1.33Z"/><path class="cls-29" d="M42.31,55.88l.9,1.33Z"/></g></g></svg>